<?xml version="1.0" encoding="utf-8"?>
<!-- Generator: Adobe Illustrator 22.1.0, SVG Export Plug-In . SVG Version: 6.00 Build 0)  -->
<svg version="1.1" id="Layer_1" xmlns="http://www.w3.org/2000/svg" xmlns:xlink="http://www.w3.org/1999/xlink" x="0px" y="0px"
	 viewBox="0 0 47.4 47.7" style="enable-background:new 0 0 47.4 47.7;" xml:space="preserve">
<style type="text/css">
	.st0{fill:#FFB639;}
	.st1{fill:none;stroke:#000000;stroke-width:1.4805;stroke-miterlimit:10;}
</style>
<rect x="15.8" y="12.4" class="st0" width="7.5" height="8.4"/>
<rect x="25" y="11.7" class="st0" width="6.4" height="7.8"/>
<g>
	<path d="M33.2,24.4c0.8,1.5,1.2,3.4,1.2,5.6c0,2.9-0.9,5.2-2.8,6.9c-1.9,1.7-4.3,2.6-7.3,2.6c-3.2,0-5.9-1-7.9-2.9
		c-2-2-3-4.4-3-7.4c0-1.9,0.3-3.5,0.8-4.8h2.5c-0.8,1.5-1.2,3.1-1.2,4.8c0,2.3,0.8,4.2,2.3,5.7c1.6,1.4,3.6,2.2,6.2,2.2
		c2.5,0,4.4-0.7,5.9-2c1.5-1.4,2.2-3.1,2.2-5.3c0-2-0.5-3.8-1.4-5.3H33.2z"/>
</g>
<g>
	<path d="M14.3,11.1h19.1v5.4c0,1.6-0.4,3-1.2,3.9c-0.8,1-1.9,1.4-3.1,1.4c-1.1,0-2-0.3-2.8-0.9c-0.8-0.6-1.4-1.4-1.7-2.4h-0.1
		c-0.2,1.3-0.6,2.3-1.5,3.1c-0.8,0.8-1.9,1.2-3.2,1.2c-1.6,0-2.9-0.6-4-1.8c-1-1.2-1.5-2.6-1.5-4.4V11.1z M31.3,13.3h-6.2v2.3
		c0,1.2,0.3,2.2,0.9,2.9s1.4,1,2.5,1c1.9,0,2.8-1.2,2.8-3.7V13.3z M23.2,13.3h-6.9v3c0,1.3,0.3,2.3,0.9,3c0.6,0.7,1.5,1.1,2.6,1.1
		c2.2,0,3.4-1.5,3.4-4.6V13.3z"/>
</g>
<circle cx="19.6" cy="18" r="1.4"/>
<circle cx="27.9" cy="16.6" r="1.4"/>
<rect x="7.8" y="6.3" class="st1" width="31.8" height="36.3"/>
<rect x="6.4" y="14.2" transform="matrix(0.7324 -0.6809 0.6809 0.7324 -7.3313 11.8165)" width="10" height="2"/>
<rect x="31.1" y="14.4" transform="matrix(0.6809 0.7324 -0.7324 0.6809 22.8362 -21.5189)" width="10" height="2"/>
</svg>
